<?xml version="1.0" encoding="utf-8"?><!-- Uploaded to: SVG Repo, www.svgrepo.com, Generator: SVG Repo Mixer Tools -->
<svg width="800px" height="800px" viewBox="0 0 400 400" fill="none" xmlns="http://www.w3.org/2000/svg">
<path d="M204.562 149.467C206.215 160.814 207.134 192.718 208.433 204.108" stroke="#000000" stroke-opacity="0.9" stroke-width="16" stroke-linecap="round" stroke-linejoin="round"/>
<path d="M212.492 224.614C216.068 272.526 216.808 320.59 216.899 368.618" stroke="#000000" stroke-opacity="0.9" stroke-width="16" stroke-linecap="round" stroke-linejoin="round"/>
<path d="M183.4 114.342C183.411 138.92 185.453 189.296 185.152 213.872" stroke="#000000" stroke-opacity="0.9" stroke-width="16" stroke-linecap="round" stroke-linejoin="round"/>
<path d="M181.053 242.885C180.383 286.567 171.669 329.629 171.641 373.318" stroke="#000000" stroke-opacity="0.9" stroke-width="16" stroke-linecap="round" stroke-linejoin="round"/>
<path d="M172.826 204.108C157.6 185.884 135.235 161.174 123.463 140.572" stroke="#000000" stroke-opacity="0.9" stroke-width="16" stroke-linecap="round" stroke-linejoin="round"/>
<path d="M181.06 242.885C161.221 216.337 136.458 194.4 119.369 165.918" stroke="#000000" stroke-opacity="0.9" stroke-width="16" stroke-linecap="round" stroke-linejoin="round"/>
<path d="M123.464 140.572C117.66 129.35 119.912 109.997 113.191 98.2368" stroke="#000000" stroke-opacity="0.9" stroke-width="16" stroke-linecap="round" stroke-linejoin="round"/>
<path d="M119.368 165.919C107.338 155.961 90.5345 148.248 79.416 137.129" stroke="#000000" stroke-opacity="0.9" stroke-width="16" stroke-linecap="round" stroke-linejoin="round"/>
<path d="M147.571 209.396C130.118 217.25 112.906 226.519 94.6934 231.722" stroke="#000000" stroke-opacity="0.9" stroke-width="16" stroke-linecap="round" stroke-linejoin="round"/>
<path d="M109.382 215.271C102.808 210.175 96.047 206.713 88.2305 204.108" stroke="#000000" stroke-opacity="0.9" stroke-width="16" stroke-linecap="round" stroke-linejoin="round"/>
<path d="M199.861 123.616C206.88 102.73 216.798 82.8469 222.775 61.9248" stroke="#000000" stroke-opacity="0.9" stroke-width="16" stroke-linecap="round" stroke-linejoin="round"/>
<path d="M181.051 114.216C168.799 89.8871 161.859 83.04 154.023 56.9194" stroke="#000000" stroke-opacity="0.9" stroke-width="16" stroke-linecap="round" stroke-linejoin="round"/>
<path d="M212.492 189.683C226.189 166.816 253.583 149.546 272.714 133.604" stroke="#000000" stroke-opacity="0.9" stroke-width="16" stroke-linecap="round" stroke-linejoin="round"/>
<path d="M216.9 207.046C234.723 186.616 254.349 167.748 271.541 147.117" stroke="#000000" stroke-opacity="0.9" stroke-width="16" stroke-linecap="round" stroke-linejoin="round"/>
<path d="M275.066 132.429C277.473 119.589 280.354 106.134 280.354 93.0645" stroke="#000000" stroke-opacity="0.9" stroke-width="16" stroke-linecap="round" stroke-linejoin="round"/>
<path d="M280.941 148.88C292.076 151.92 302.379 155.145 313.843 157.693" stroke="#000000" stroke-opacity="0.9" stroke-width="16" stroke-linecap="round" stroke-linejoin="round"/>
<path d="M221.766 53.0476C212.103 15.3797 256.605 42.2957 232.52 51.3273" stroke="#000000" stroke-opacity="0.5" stroke-width="16" stroke-linecap="round" stroke-linejoin="round"/>
<path d="M210.144 71.1142C218.064 31.1537 171.546 71.1142 206.274 71.1142" stroke="#000000" stroke-opacity="0.5" stroke-width="16" stroke-linecap="round" stroke-linejoin="round"/>
<path d="M227.357 82.2984C250.688 63.8052 238.659 109.414 225.207 87.8905" stroke="#000000" stroke-opacity="0.5" stroke-width="16" stroke-linecap="round" stroke-linejoin="round"/>
<path d="M155.087 45.7351C162.309 12.9989 121.156 27.5133 147.775 42.7245" stroke="#000000" stroke-opacity="0.5" stroke-width="16" stroke-linecap="round" stroke-linejoin="round"/>
<path d="M148.21 76.2766C112.458 45.8236 125.078 117.507 146.49 71.1145" stroke="#000000" stroke-opacity="0.5" stroke-width="16" stroke-linecap="round" stroke-linejoin="round"/>
<path d="M164.123 64.2322C178.822 25.596 189.341 68.9642 164.553 68.9642" stroke="#000000" stroke-opacity="0.5" stroke-width="16" stroke-linecap="round" stroke-linejoin="round"/>
<path d="M100.026 94.3433C68.1742 85.6173 104.758 52.7941 104.758 96.9249" stroke="#000000" stroke-opacity="0.5" stroke-width="16" stroke-linecap="round" stroke-linejoin="round"/>
<path d="M104.334 112.409C72.7437 93.8822 89.5531 146.274 106.485 112.409" stroke="#000000" stroke-opacity="0.5" stroke-width="16" stroke-linecap="round" stroke-linejoin="round"/>
<path d="M129.283 111.119C158.263 82.3757 149.537 127.649 129.283 114.991" stroke="#000000" stroke-opacity="0.5" stroke-width="16" stroke-linecap="round" stroke-linejoin="round"/>
<path d="M74.2149 126.175C74.316 84.8088 41.1109 133.104 72.4946 129.616" stroke="#000000" stroke-opacity="0.5" stroke-width="16" stroke-linecap="round" stroke-linejoin="round"/>
<path d="M76.3734 154.565C44.3529 154.565 80.6754 203.162 80.6754 153.705" stroke="#000000" stroke-opacity="0.5" stroke-width="16" stroke-linecap="round" stroke-linejoin="round"/>
<path d="M80.6723 235.864C41.0185 246.917 94.336 273.524 84.9743 242.317" stroke="#000000" stroke-opacity="0.5" stroke-width="16" stroke-linecap="round" stroke-linejoin="round"/>
<path d="M75.0767 213.497C53.6035 227.214 64.5328 185.184 79.8087 209.625" stroke="#000000" stroke-opacity="0.5" stroke-width="16" stroke-linecap="round" stroke-linejoin="round"/>
<path d="M327.581 158.007C343.769 135.547 348.365 179.707 323.279 164.029" stroke="#000000" stroke-opacity="0.5" stroke-width="16" stroke-linecap="round" stroke-linejoin="round"/>
<path d="M277.25 77.5667C281.391 40.9258 307.072 72.6926 284.994 76.7066" stroke="#000000" stroke-opacity="0.5" stroke-width="16" stroke-linecap="round" stroke-linejoin="round"/>
<path d="M288.863 104.667C315.359 64.6005 305.781 128.179 289.293 105.097" stroke="#000000" stroke-opacity="0.5" stroke-width="16" stroke-linecap="round" stroke-linejoin="round"/>
<path d="M269.077 102.947C255.446 71.634 232.514 131.767 267.357 104.668" stroke="#000000" stroke-opacity="0.5" stroke-width="16" stroke-linecap="round" stroke-linejoin="round"/>
<path d="M298.76 144.671C304.052 122.151 329.532 125.855 309.944 143.811" stroke="#000000" stroke-opacity="0.5" stroke-width="16" stroke-linecap="round" stroke-linejoin="round"/>
<path d="M300.047 169.19C304.904 169.002 306.069 171.441 306.069 176.073C306.069 203.408 274.464 180.882 291.875 174.352" stroke="#000000" stroke-opacity="0.5" stroke-width="16" stroke-linecap="round" stroke-linejoin="round"/>
<path d="M219.179 118.002C233.425 112.841 232.091 136.619 217.459 132.627" stroke="#000000" stroke-opacity="0.5" stroke-width="16" stroke-linecap="round" stroke-linejoin="round"/>
<path d="M151.647 158.437C151.511 117.124 185.313 158.867 155.518 158.867" stroke="#000000" stroke-opacity="0.5" stroke-width="16" stroke-linecap="round" stroke-linejoin="round"/>
</svg>