<?xml version="1.0" encoding="iso-8859-1"?>
<!-- Uploaded to: SVG Repo, www.svgrepo.com, Generator: SVG Repo Mixer Tools -->
<svg fill="#000000" version="1.1" id="Layer_1" xmlns="http://www.w3.org/2000/svg" xmlns:xlink="http://www.w3.org/1999/xlink" 
	 viewBox="0 0 512 512" xml:space="preserve">
<g>
	<g>
		<path d="M422.82,385.505v-52.761l56.656-32.375v-29.411c18.422-3.511,32.393-19.728,32.393-39.155
			c0-21.983-17.885-39.869-39.869-39.869s-39.869,17.885-39.869,39.869c0,19.151,13.575,35.186,31.607,39.002v20.431l-40.918,23.382
			v-46.59l-39.869-32v-44.867c14.858-2.172,27.514-11.194,34.664-23.746c2.121,0.168,4.252,0.257,6.385,0.257
			c44.04,0,79.869-35.828,79.869-79.869S468.04,7.934,424,7.934s-79.869,35.828-79.869,79.869c0,6.275,0.741,12.465,2.173,18.498
			c-11.059,8.776-18.173,22.32-18.173,37.502c0,23.393,16.871,42.907,39.082,47.046v52.728l39.869,32v109.931h-95.475v-61.319
			l20.758-13.839l-8.729-13.094l-12.029,8.019v-17.341h-15.738v97.574h-92.241l16.737-11.158l-8.729-13.094l-13.34,8.893v-42.477
			h18.83c16.952,0,30.744-13.791,30.744-30.744V46.677c0-16.953-13.791-30.744-30.744-30.744h-50.25
			c-16.952,0-30.744,13.792-30.744,30.744v57.125h15.738V46.677c0-8.275,6.732-15.006,15.006-15.006h50.25
			c8.275,0,15.006,6.732,15.006,15.006v250.25c0,8.275-6.732,15.006-15.006,15.006h-18.83v-37.781l14.711-22.428l-13.16-8.632
			l-17.288,26.359v10.599l-10.193-6.796l-8.729,13.094l18.922,12.615v12.969h-15.682c-8.275,0-15.006-6.732-15.006-15.006v-17.125
			h-15.738v17.125c0,16.953,13.791,30.744,30.744,30.744h15.682v40.379l-10.193-6.796l-8.729,13.094l16.737,11.158h-69.159V279.35
			c45.086-3.685,80.656-41.529,80.656-87.549c0-48.451-39.418-87.869-87.869-87.869c-48.451,0-87.869,39.418-87.869,87.869
			c0,13.645,3.179,27.092,9.223,39.213c-10.396,7.203-17.223,19.211-17.223,32.787c0,19.198,13.64,35.267,31.738,39.033v22.134
			l55.607,24.091v36.446H0v15.738h512v-15.738H422.82z M447.869,231.803c0-13.306,10.824-24.131,24.131-24.131
			s24.131,10.825,24.131,24.131c0,13.306-10.824,24.131-24.131,24.131S447.869,245.109,447.869,231.803z M424,23.672
			c35.362,0,64.131,28.769,64.131,64.131s-28.77,64.131-64.131,64.131c-0.278,0-0.554-0.02-0.832-0.023
			c0.452-2.638,0.701-5.343,0.701-8.108c0-26.395-21.474-47.869-47.869-47.869c-5.332,0-10.456,0.89-15.25,2.505
			c-0.583-3.496-0.881-7.048-0.881-10.637C359.869,52.441,388.638,23.672,424,23.672z M343.869,143.803
			c0-17.718,14.414-32.131,32.131-32.131c17.717,0,32.131,14.414,32.131,32.131c0,17.717-14.414,32.131-32.131,32.131
			C358.282,175.934,343.869,161.52,343.869,143.803z M23.869,263.803c0-13.306,10.824-24.131,24.131-24.131
			s24.131,10.825,24.131,24.131c0,13.306-10.824,24.131-24.131,24.131S23.869,277.109,23.869,263.803z M95.475,331.909
			l-39.869-17.273v-11.702c13.738-2.666,24.98-12.401,29.768-25.259c3.329,0.719,6.7,1.242,10.1,1.571V331.909z M95.475,263.432
			c-2.576-0.303-5.128-0.743-7.65-1.32c-0.89-21.202-18.41-38.178-39.826-38.178c-2.796,0-5.525,0.293-8.159,0.843
			c-5.219-10.148-7.972-21.471-7.972-32.974c0-39.773,32.358-72.131,72.131-72.131s72.131,32.358,72.131,72.131
			c0,37.338-28.519,68.139-64.918,71.769v-27.121l21.151-14.101l-8.729-13.094l-12.422,8.281v-17.734H95.475V263.432z"/>
	</g>
</g>
<g>
	<g>
		<polygon points="320,351.934 361.538,351.934 304,54.654 246.462,351.934 287.475,351.934 287.475,336.197 265.538,336.197 
			304,137.476 342.462,336.197 320,336.197 		"/>
	</g>
</g>
<g>
	<g>
		<rect x="407.082" y="183.018" width="15.738" height="64"/>
	</g>
</g>
<g>
	<g>
		<polygon points="143.738,488.328 143.738,424.328 128,424.328 128,488.328 119.607,488.328 119.607,455.803 103.869,455.803 
			103.869,488.328 95.475,488.328 95.475,463.148 79.738,463.148 79.738,488.328 70.295,488.328 70.295,424.328 54.557,424.328 
			54.557,488.328 47.213,488.328 47.213,448.459 31.475,448.459 31.475,488.328 16.787,488.328 16.787,504.066 159.475,504.066 
			159.475,488.328 		"/>
	</g>
</g>
<g>
	<g>
		<rect x="79.738" y="415.937" width="15.738" height="39.869"/>
	</g>
</g>
<g>
	<g>
		<rect x="184.656" y="424.33" width="175.213" height="15.738"/>
	</g>
</g>
<g>
	<g>
		<rect x="376.656" y="424.33" width="24.131" height="15.738"/>
	</g>
</g>
<g>
	<g>
		<rect x="263.344" y="464.199" width="192" height="15.738"/>
	</g>
</g>
</svg>