<?xml version="1.0" encoding="iso-8859-1"?>
<!-- Uploaded to: SVG Repo, www.svgrepo.com, Generator: SVG Repo Mixer Tools -->
<svg fill="#000000" height="800px" width="800px" version="1.1" id="Layer_1" xmlns="http://www.w3.org/2000/svg" xmlns:xlink="http://www.w3.org/1999/xlink" 
	 viewBox="0 0 511.997 511.997" xml:space="preserve">
<g>
	<g>
		<path d="M502.731,195.325c-0.009-0.157-0.022-0.312-0.041-0.468c-0.012-0.104-0.028-0.207-0.045-0.31
			c-0.026-0.16-0.058-0.318-0.094-0.477c-0.021-0.094-0.043-0.186-0.068-0.279c-0.046-0.169-0.099-0.336-0.157-0.502
			c-0.027-0.079-0.053-0.159-0.082-0.236c-0.068-0.179-0.147-0.354-0.228-0.528c-0.029-0.063-0.056-0.127-0.087-0.19
			c-0.094-0.185-0.198-0.364-0.307-0.543c-0.029-0.049-0.056-0.1-0.088-0.148c-0.121-0.188-0.254-0.37-0.394-0.549
			c-0.026-0.035-0.05-0.071-0.077-0.105c-0.169-0.209-0.349-0.411-0.542-0.605c-0.194-0.194-0.397-0.374-0.605-0.543
			c-0.047-0.038-0.098-0.07-0.146-0.107c-0.165-0.127-0.331-0.25-0.503-0.361c-0.066-0.043-0.135-0.079-0.203-0.12
			c-0.159-0.096-0.317-0.189-0.48-0.273c-0.083-0.043-0.17-0.079-0.255-0.119c-0.15-0.069-0.3-0.137-0.454-0.196
			c-0.102-0.04-0.206-0.073-0.309-0.108c-0.139-0.047-0.279-0.093-0.419-0.131c-0.117-0.033-0.235-0.06-0.353-0.086
			c-0.131-0.03-0.264-0.056-0.396-0.078c-0.126-0.021-0.251-0.04-0.379-0.055c-0.132-0.015-0.266-0.026-0.399-0.035
			c-0.124-0.008-0.247-0.016-0.371-0.018c-0.155-0.003-0.308,0.003-0.463,0.01c-0.078,0.004-0.157-0.001-0.236,0.005
			c-1.051,0.078-26.124,2.058-59.698,12.312c-8.562,2.615-18.141,5.933-28.259,10.099c2.926-3.345,5.726-6.903,8.342-10.692
			c29.137-42.208,23.839-95.382,23.599-97.625c-0.008-0.071-0.024-0.139-0.035-0.211c-0.022-0.166-0.047-0.33-0.08-0.494
			c-0.02-0.102-0.046-0.202-0.07-0.303c-0.038-0.155-0.079-0.308-0.127-0.461c-0.031-0.097-0.063-0.192-0.097-0.288
			c-0.056-0.156-0.117-0.309-0.182-0.462c-0.037-0.085-0.074-0.17-0.114-0.254c-0.076-0.161-0.161-0.318-0.248-0.473
			c-0.04-0.07-0.078-0.141-0.12-0.212c-0.101-0.165-0.21-0.325-0.324-0.482c-0.04-0.056-0.077-0.113-0.118-0.168
			c-0.125-0.165-0.26-0.323-0.4-0.477c-0.039-0.043-0.074-0.089-0.114-0.131c-0.15-0.159-0.31-0.31-0.476-0.458
			c-0.037-0.033-0.069-0.068-0.107-0.101c-0.203-0.174-0.416-0.34-0.641-0.496c-0.001,0-0.001-0.001-0.001-0.001
			c-0.001-0.001-0.001-0.001-0.001-0.001c-0.008-0.006-0.017-0.01-0.025-0.015c-0.217-0.149-0.44-0.285-0.665-0.408
			c-0.052-0.028-0.107-0.051-0.159-0.077c-0.187-0.097-0.376-0.189-0.569-0.269c-0.061-0.025-0.124-0.045-0.186-0.069
			c-0.186-0.071-0.373-0.139-0.563-0.195c-0.072-0.021-0.147-0.038-0.22-0.057c-0.18-0.048-0.361-0.092-0.542-0.125
			c-0.086-0.016-0.173-0.027-0.26-0.041c-0.169-0.025-0.338-0.048-0.508-0.061c-0.099-0.008-0.198-0.013-0.297-0.017
			c-0.159-0.007-0.318-0.009-0.475-0.006c-0.107,0.002-0.214,0.005-0.32,0.012c-0.154,0.009-0.307,0.025-0.46,0.044
			c-0.107,0.013-0.214,0.025-0.322,0.043c-0.162,0.026-0.322,0.062-0.481,0.099c-0.072,0.016-0.144,0.025-0.216,0.045
			c-2.184,0.573-53.817,14.529-82.951,56.736c-4.323,6.261-7.882,12.764-10.818,19.306c-4.797-45.31-21.564-85.182-35.988-112.282
			c-18.407-34.583-36.626-55.906-37.393-56.797c-0.05-0.058-0.107-0.109-0.159-0.166c-0.108-0.117-0.216-0.234-0.331-0.344
			c-0.078-0.076-0.161-0.148-0.242-0.22c-0.115-0.103-0.232-0.201-0.354-0.297c-0.083-0.065-0.168-0.128-0.254-0.19
			c-0.13-0.094-0.264-0.182-0.4-0.268c-0.082-0.052-0.165-0.103-0.249-0.152c-0.151-0.086-0.305-0.166-0.462-0.242
			c-0.076-0.037-0.152-0.075-0.229-0.11c-0.172-0.077-0.349-0.144-0.527-0.209c-0.068-0.024-0.135-0.052-0.205-0.074
			c-0.191-0.063-0.388-0.114-0.585-0.162c-0.061-0.015-0.121-0.034-0.182-0.047c-0.208-0.045-0.42-0.076-0.634-0.104
			c-0.054-0.007-0.107-0.019-0.162-0.024C256.615,0.016,256.345,0,256.072,0c-0.274,0-0.544,0.016-0.811,0.044
			c-0.054,0.006-0.108,0.017-0.162,0.024c-0.214,0.027-0.426,0.059-0.634,0.104c-0.061,0.013-0.121,0.033-0.182,0.047
			c-0.197,0.048-0.394,0.1-0.585,0.162c-0.069,0.022-0.135,0.05-0.203,0.074c-0.179,0.064-0.356,0.132-0.528,0.209
			c-0.077,0.035-0.152,0.073-0.228,0.11c-0.158,0.076-0.312,0.157-0.463,0.243c-0.083,0.048-0.165,0.099-0.246,0.15
			c-0.137,0.086-0.272,0.175-0.403,0.27c-0.084,0.061-0.169,0.123-0.251,0.188c-0.123,0.097-0.242,0.197-0.359,0.301
			c-0.079,0.07-0.159,0.14-0.236,0.215c-0.118,0.114-0.23,0.234-0.341,0.355c-0.049,0.054-0.103,0.102-0.151,0.157
			c-0.766,0.891-18.986,22.214-37.393,56.797c-15.185,28.529-32.957,71.214-36.637,119.495c-3.406-8.946-7.898-17.958-13.808-26.518
			c-29.134-42.206-80.767-56.162-82.951-56.736c-0.064-0.017-0.129-0.024-0.194-0.04c-0.169-0.04-0.338-0.076-0.509-0.105
			c-0.102-0.016-0.204-0.029-0.305-0.041c-0.159-0.019-0.317-0.036-0.476-0.045c-0.102-0.006-0.203-0.009-0.305-0.011
			c-0.165-0.003-0.329-0.001-0.495,0.006c-0.094,0.004-0.186,0.008-0.28,0.016c-0.178,0.014-0.355,0.038-0.532,0.064
			c-0.079,0.012-0.158,0.022-0.236,0.037c-0.192,0.036-0.384,0.081-0.574,0.132c-0.063,0.017-0.127,0.031-0.189,0.049
			c-0.203,0.06-0.403,0.131-0.602,0.21c-0.05,0.019-0.1,0.035-0.15,0.055c-0.206,0.086-0.408,0.183-0.607,0.287
			c-0.041,0.021-0.082,0.038-0.123,0.06c-0.228,0.124-0.453,0.262-0.672,0.411c-0.007,0.005-0.015,0.009-0.022,0.013h-0.001
			c-0.001,0.001-0.002,0.001-0.002,0.001c-0.225,0.156-0.439,0.322-0.641,0.496c-0.038,0.033-0.07,0.068-0.108,0.102
			C72.31,97.534,72.15,97.685,72,97.843c-0.041,0.043-0.076,0.09-0.116,0.133c-0.138,0.155-0.274,0.311-0.398,0.475
			c-0.042,0.055-0.079,0.113-0.119,0.169c-0.113,0.158-0.223,0.316-0.323,0.481c-0.043,0.069-0.08,0.14-0.12,0.212
			c-0.088,0.156-0.172,0.312-0.248,0.473c-0.04,0.084-0.077,0.17-0.114,0.255c-0.065,0.152-0.126,0.305-0.182,0.46
			c-0.035,0.096-0.067,0.192-0.098,0.289c-0.048,0.153-0.09,0.306-0.127,0.461c-0.024,0.101-0.05,0.201-0.07,0.303
			c-0.034,0.164-0.058,0.328-0.08,0.494c-0.009,0.071-0.026,0.139-0.035,0.211c-0.24,2.243-5.537,55.416,23.599,97.625
			c2.068,2.996,4.252,5.845,6.521,8.562c-8.158-3.184-15.896-5.816-22.942-7.968c-33.574-10.253-58.647-12.233-59.698-12.312
			c-0.078-0.006-0.156-0.001-0.233-0.005c-0.157-0.007-0.312-0.013-0.469-0.01c-0.12,0.002-0.238,0.01-0.358,0.017
			c-0.139,0.009-0.278,0.02-0.417,0.037c-0.121,0.014-0.24,0.032-0.36,0.052c-0.14,0.023-0.279,0.051-0.418,0.082
			c-0.112,0.025-0.223,0.051-0.334,0.081c-0.149,0.041-0.296,0.089-0.443,0.137c-0.097,0.033-0.193,0.064-0.289,0.102
			c-0.161,0.062-0.318,0.132-0.474,0.206c-0.079,0.037-0.16,0.07-0.237,0.11c-0.17,0.086-0.335,0.183-0.5,0.283
			c-0.061,0.038-0.125,0.07-0.185,0.11c-0.177,0.115-0.348,0.241-0.517,0.371c-0.044,0.034-0.09,0.063-0.133,0.098
			c-0.21,0.169-0.412,0.35-0.607,0.544c-0.194,0.194-0.373,0.397-0.542,0.605c-0.028,0.034-0.05,0.07-0.077,0.105
			c-0.139,0.179-0.273,0.361-0.394,0.549c-0.031,0.048-0.057,0.099-0.088,0.148c-0.11,0.178-0.214,0.358-0.307,0.543
			c-0.032,0.062-0.058,0.127-0.087,0.19c-0.082,0.174-0.16,0.349-0.228,0.528c-0.029,0.078-0.055,0.158-0.082,0.236
			c-0.057,0.166-0.111,0.333-0.157,0.502c-0.025,0.093-0.047,0.185-0.068,0.279c-0.037,0.159-0.068,0.318-0.094,0.477
			c-0.017,0.103-0.032,0.207-0.045,0.31c-0.019,0.156-0.032,0.311-0.041,0.468c-0.006,0.106-0.013,0.211-0.015,0.316
			c-0.003,0.166,0.003,0.332,0.01,0.498c0.003,0.071-0.001,0.142,0.004,0.215c0.079,1.049,2.062,26.097,12.327,59.635
			c9.502,31.042,28.224,75.433,63.458,110.627c25.114,25.086,54.903,41.787,81.199,52.751v85.002c0,4.216,3.417,7.632,7.632,7.632
			h168.481c4.215,0,7.632-3.416,7.632-7.632v-86.814c25.221-10.966,53.179-27.195,76.949-50.939
			c35.233-35.194,53.955-79.585,63.458-110.627c10.266-33.538,12.249-58.586,12.327-59.635c0.005-0.072,0.001-0.142,0.004-0.215
			c0.012-0.163,0.018-0.329,0.015-0.495C502.744,195.535,502.737,195.43,502.731,195.325z M402.371,191.216
			c-14.473,20.968-35.861,34.285-51.974,41.974l27.679-40.098l18.138-3.329c4.145-0.761,6.89-4.739,6.129-8.884
			c-0.762-4.144-4.74-6.887-8.884-6.128l-3.116,0.572l32.824-47.551C421.702,145.549,416.846,170.248,402.371,191.216z
			 M358.615,161.098c14.474-20.968,35.861-34.285,51.975-41.973l-32.824,47.551l-0.574-3.12c-0.763-4.145-4.741-6.891-8.886-6.125
			c-4.145,0.762-6.888,4.741-6.125,8.886l3.331,18.108l-27.693,40.119C339.285,206.766,344.141,182.065,358.615,161.098z
			 M473.374,206.714l-69.225,69.147v-22.653c0-4.216-3.417-7.632-7.632-7.632c-4.215,0-7.632,3.416-7.632,7.632v37.899
			l-22.093,22.068v-22.652c0-4.216-3.417-7.632-7.632-7.632s-7.632,3.416-7.632,7.632v37.898l-22.088,22.063v-22.652
			c0-4.216-3.417-7.632-7.632-7.632c-4.215,0-7.632,3.416-7.632,7.632v37.898l-47.313,47.259
			c6.242-32.466,23.379-93.731,68.023-138.325C379.536,230.068,440.87,212.948,473.374,206.714z M329.174,256.811
			c0.287,0.033,0.575,0.064,0.863,0.064c0.318,0,0.633-0.022,0.946-0.061c0.094-0.011,0.185-0.035,0.278-0.05
			c0.136-0.022,0.273-0.044,0.408-0.073c-1.08,0.976-2.152,1.967-3.217,2.971C328.691,258.711,328.944,257.76,329.174,256.811z
			 M263.702,284.916l30.308-30.274c2.982-2.979,2.984-7.812,0.006-10.793c-2.978-2.98-7.811-2.984-10.792-0.006l-19.521,19.5
			v-37.502l30.308-30.275c2.982-2.979,2.984-7.812,0.006-10.793s-7.811-2.983-10.792-0.006l-19.521,19.5v-37.513l30.308-30.275
			c2.982-2.979,2.984-7.812,0.006-10.793c-2.978-2.981-7.811-2.983-10.792-0.006l-19.521,19.5V30.44
			c6.39,9.201,14.35,21.636,22.26,36.535c16.128,30.387,35.356,77.575,35.356,129.82c0,29.217-5.93,59.72-17.612,90.678
			c-19.632,26.235-32.177,54.54-40.008,77.564V284.916z M226.179,66.973c7.909-14.899,15.871-27.333,22.26-36.535V145.18
			l-19.523-19.501c-2.981-2.976-7.814-2.976-10.792,0.006s-2.976,7.815,0.006,10.793l30.308,30.275v37.513l-19.523-19.501
			c-2.981-2.977-7.814-2.975-10.792,0.006c-2.978,2.982-2.976,7.815,0.006,10.793l30.308,30.275v37.502l-19.522-19.5
			c-2.982-2.978-7.815-2.975-10.792,0.007c-2.978,2.981-2.976,7.814,0.006,10.792l30.308,30.274v80.535
			c-7.784-22.987-20.278-51.319-39.866-77.605c-11.775-31.087-17.753-61.718-17.753-91.052
			C190.821,144.549,210.049,97.361,226.179,66.973z M181.787,256.11c0.311-0.151,0.609-0.331,0.901-0.525
			c0.336,1.415,0.688,2.833,1.047,4.25c-1.147-1.083-2.302-2.148-3.464-3.198C180.787,256.511,181.297,256.349,181.787,256.11z
			 M149.889,161.098c14.474,20.968,19.331,45.67,20.796,63.447l-27.693-40.118l3.331-18.108c0.763-4.145-1.979-8.124-6.125-8.886
			c-4.138-0.768-8.123,1.979-8.886,6.125l-0.574,3.12l-32.857-47.598C113.978,126.741,135.358,140.048,149.889,161.098z
			 M85.336,127.771l32.825,47.552l-3.115-0.572c-4.138-0.762-8.123,1.981-8.884,6.128c-0.761,4.146,1.983,8.123,6.129,8.884
			l18.138,3.329l27.712,40.145c-16.096-7.665-37.477-20.972-52.007-42.022C91.658,170.247,86.801,145.547,85.336,127.771z
			 M177.109,274.663c44.645,44.595,61.782,105.861,68.023,138.325l-47.312-47.259v-37.898c0-4.216-3.417-7.632-7.632-7.632
			c-4.215,0-7.632,3.416-7.632,7.632v22.652l-22.088-22.063v-37.899c0-4.216-3.417-7.632-7.632-7.632s-7.632,3.416-7.632,7.632
			v22.652l-22.093-22.068v-37.899c0-4.216-3.417-7.632-7.632-7.632s-7.632,3.416-7.632,7.632v22.653l-69.225-69.147
			C71.13,212.948,132.464,230.068,177.109,274.663z M95.841,355.815c-44.645-44.594-61.783-105.86-68.024-138.324l69.226,69.148
			H74.373c-4.215,0-7.632,3.416-7.632,7.632c0,4.216,3.417,7.632,7.632,7.632h37.95l22.075,22.051H111.73
			c-4.215,0-7.632,3.416-7.632,7.632c0,4.216,3.417,7.632,7.632,7.632h37.949l22.07,22.046h-22.67c-4.215,0-7.632,3.416-7.632,7.632
			c0,4.216,3.417,7.632,7.632,7.632h37.95l47.294,47.24C201.819,417.53,140.485,400.411,95.841,355.815z M181.517,496.737v-12.67
			l84.383,12.67H181.517z M334.734,491.638l-153.218-23.006v-17.295l153.218,23.006V491.638z M334.735,458.909L334.735,458.909
			l-153.218-23.006v-10.637c4.993,1.783,9.782,3.358,14.283,4.733c31.459,9.608,55.454,11.952,59.217,12.274
			c0.056,0.007,0.112,0.019,0.169,0.024c0.242,0.023,0.485,0.036,0.73,0.036c0.005,0,0.01,0.001,0.014,0.001c0,0,0.001,0,0.002,0
			c0.023,0,0.046-0.002,0.069-0.003c0.023,0,0.046,0.003,0.069,0.003c0.001,0,0.001,0,0.002,0c0.005,0,0.01-0.001,0.014-0.001
			c0.243,0,0.486-0.012,0.73-0.036c0.057-0.005,0.112-0.017,0.169-0.024c3.762-0.322,27.757-2.666,59.217-12.274
			c5.765-1.76,11.993-3.84,18.533-6.281V458.909z M416.159,355.816c-44.645,44.596-105.98,61.715-138.483,67.95l47.294-47.241
			h37.949c4.215,0,7.632-3.416,7.632-7.632c0-4.216-3.417-7.632-7.632-7.632h-22.67l22.07-22.046h37.949
			c4.215,0,7.632-3.416,7.632-7.632c0-4.216-3.417-7.632-7.632-7.632H377.6l22.076-22.051h37.95c4.215,0,7.632-3.416,7.632-7.632
			c0-4.216-3.417-7.632-7.632-7.632h-22.67l69.225-69.148C477.941,249.956,460.804,311.221,416.159,355.816z"/>
	</g>
</g>
</svg>